<?xml version="1.0" encoding="UTF-8" standalone="no"?>
<!-- Created with Inkscape (http://www.inkscape.org/) -->

<svg
   xmlns:dc="http://purl.org/dc/elements/1.1/"
   xmlns:cc="http://creativecommons.org/ns#"
   xmlns:rdf="http://www.w3.org/1999/02/22-rdf-syntax-ns#"
   xmlns:svg="http://www.w3.org/2000/svg"
   xmlns="http://www.w3.org/2000/svg"
   xmlns:sodipodi="http://sodipodi.sourceforge.net/DTD/sodipodi-0.dtd"
   xmlns:inkscape="http://www.inkscape.org/namespaces/inkscape"
   width="1000"
   height="1000"
   id="svg2"
   version="1.1"
   inkscape:version="0.48.2 r9819"
   sodipodi:docname="New document 1">
  <defs
     id="defs4">
    <mask
       maskUnits="userSpaceOnUse"
       id="mask4098">
      <path
         transform="translate(-56.512919,50.183552)"
         d="m 685.71429,519.50507 a 267.14285,267.14285 0 1 1 -534.2857,0 267.14285,267.14285 0 1 1 534.2857,0 z"
         sodipodi:ry="267.14285"
         sodipodi:rx="267.14285"
         sodipodi:cy="519.50507"
         sodipodi:cx="418.57144"
         id="path4100"
         style="fill:#ffffff;fill-opacity:1;fill-rule:nonzero;stroke:none"
         sodipodi:type="arc" />
    </mask>
  </defs>
  <sodipodi:namedview
     id="base"
     pagecolor="#ffffff"
     bordercolor="#666666"
     borderopacity="1.0"
     inkscape:pageopacity="0.0"
     inkscape:pageshadow="2"
     inkscape:zoom="0.35"
     inkscape:cx="-143.57143"
     inkscape:cy="748.57143"
     inkscape:document-units="px"
     inkscape:current-layer="layer2"
     showgrid="false"
     inkscape:window-width="1680"
     inkscape:window-height="1021"
     inkscape:window-x="-9"
     inkscape:window-y="-9"
     inkscape:window-maximized="1"
     objecttolerance="10000"
     guidetolerance="10000" />
  <metadata
     id="metadata7">
    <rdf:RDF>
      <cc:Work
         rdf:about="">
        <dc:format>image/svg+xml</dc:format>
        <dc:type
           rdf:resource="http://purl.org/dc/dcmitype/StillImage" />
        <dc:title></dc:title>
      </cc:Work>
    </rdf:RDF>
  </metadata>
  <g
     inkscape:groupmode="layer"
     id="layer2"
     inkscape:label="Layer">
    <path
       sodipodi:type="arc"
       style="fill:#e6e6e6;fill-opacity:1;fill-rule:nonzero;stroke:none"
       id="path3757-8"
       sodipodi:cx="418.57144"
       sodipodi:cy="519.50507"
       sodipodi:rx="267.14285"
       sodipodi:ry="267.14285"
       d="m 685.71429,519.50507 a 267.14285,267.14285 0 1 1 -534.2857,0 267.14285,267.14285 0 1 1 534.2857,0 z"
       transform="matrix(1.8200642,0,0,1.8218836,-253.25547,-449.33491)"
       mask="none" />
    <path
       transform="matrix(1.8200642,0,0,1.8218836,-161.82689,-535.0492)"
       d="m 685.71429,519.50507 a 267.14285,267.14285 0 1 1 -534.2857,0 267.14285,267.14285 0 1 1 534.2857,0 z"
       sodipodi:ry="267.14285"
       sodipodi:rx="267.14285"
       sodipodi:cy="519.50507"
       sodipodi:cx="418.57144"
       id="path4024"
       style="fill:#ffffff;fill-opacity:1;fill-rule:nonzero;stroke:none"
       sodipodi:type="arc"
       mask="url(#mask4098)" />
  </g>
  <g
     inkscape:label="Layer 1"
     inkscape:groupmode="layer"
     id="layer1"
     transform="translate(0,-52.362183)">
    <path
       sodipodi:type="arc"
       style="fill:none;fill-opacity:1;fill-rule:evenodd;stroke:#000000;stroke-width:13.67400329000000000;stroke-linecap:butt;stroke-linejoin:miter;stroke-miterlimit:4;stroke-opacity:1;stroke-dasharray:none"
       id="path3757"
       sodipodi:cx="418.57144"
       sodipodi:cy="519.50507"
       sodipodi:rx="267.14285"
       sodipodi:ry="267.14285"
       d="m 685.71429,519.50507 a 267.14285,267.14285 0 1 1 -534.2857,0 267.14285,267.14285 0 1 1 534.2857,0 z"
       transform="matrix(1.8200642,0,0,1.8218836,-260.88437,-393.82984)" />
    <path
       sodipodi:type="arc"
       style="fill:#000000;fill-opacity:1;stroke-width:24.89999962;stroke-miterlimit:4;stroke-dasharray:none"
       id="path3765"
       sodipodi:cx="345.71429"
       sodipodi:cy="308.57144"
       sodipodi:rx="120"
       sodipodi:ry="120"
       d="m 465.71429,308.57144 a 120,120 0 1 1 -240,0 120,120 0 1 1 240,0 z"
       transform="translate(-40,52.362183)" />
    <path
       transform="translate(354.2857,52.362167)"
       sodipodi:type="arc"
       style="fill:#000000;fill-opacity:1;stroke-width:24.89999962;stroke-miterlimit:4;stroke-dasharray:none"
       id="path3765-1"
       sodipodi:cx="345.71429"
       sodipodi:cy="308.57144"
       sodipodi:rx="120"
       sodipodi:ry="120"
       d="m 465.71429,308.57144 a 120,120 0 1 1 -240,0 120,120 0 1 1 240,0 z" />
  </g>
</svg>
