<?xml version="1.0" encoding="UTF-8" standalone="no"?>
<!-- Created with Inkscape (http://www.inkscape.org/) -->

<svg
   xmlns:dc="http://purl.org/dc/elements/1.1/"
   xmlns:cc="http://creativecommons.org/ns#"
   xmlns:rdf="http://www.w3.org/1999/02/22-rdf-syntax-ns#"
   xmlns:svg="http://www.w3.org/2000/svg"
   xmlns="http://www.w3.org/2000/svg"
   version="1.1"
   width="1000"
   height="1000"
   id="svg2">
  <defs
     id="defs4">
    <mask
       id="mask4098">
      <path
         d="m 685.71429,519.50507 a 267.14285,267.14285 0 1 1 -534.2857,0 267.14285,267.14285 0 1 1 534.2857,0 z"
         transform="translate(-56.512919,50.183552)"
         id="path4100"
         style="fill:#ffffff;fill-opacity:1;fill-rule:nonzero;stroke:none" />
    </mask>
  </defs>
  <metadata
     id="metadata7">
    <rdf:RDF>
      <cc:Work
         rdf:about="">
        <dc:format>image/svg+xml</dc:format>
        <dc:type
           rdf:resource="http://purl.org/dc/dcmitype/StillImage" />
        <dc:title></dc:title>
      </cc:Work>
    </rdf:RDF>
  </metadata>
  <g
     id="layer2">
    <path
       d="m 685.71429,519.50507 a 267.14285,267.14285 0 1 1 -534.2857,0 267.14285,267.14285 0 1 1 534.2857,0 z"
       transform="matrix(1.8200642,0,0,1.8218836,-253.25547,-449.33491)"
       id="path3757-8"
       style="fill:#e6e6e6;fill-opacity:1;fill-rule:nonzero;stroke:none" />
    <path
       d="m 685.71429,519.50507 a 267.14285,267.14285 0 1 1 -534.2857,0 267.14285,267.14285 0 1 1 534.2857,0 z"
       transform="matrix(1.8200642,0,0,1.8218836,-161.82689,-535.0492)"
       mask="url(#mask4098)"
       id="path4024"
       style="fill:#ffffff;fill-opacity:1;fill-rule:nonzero;stroke:none" />
  </g>
  <g
     transform="translate(0,-52.362183)"
     id="layer1">
    <path
       d="m 685.71429,519.50507 a 267.14285,267.14285 0 1 1 -534.2857,0 267.14285,267.14285 0 1 1 534.2857,0 z"
       transform="matrix(1.8200642,0,0,1.8218836,-260.88437,-393.82984)"
       id="path3757"
       style="fill:none;stroke:#000000;stroke-width:13.6740036;stroke-linecap:butt;stroke-linejoin:miter;stroke-miterlimit:4;stroke-opacity:1;stroke-dasharray:none" />
    <path
       d="m 465.71429,308.57144 a 120,120 0 1 1 -240,0 120,120 0 1 1 240,0 z"
       transform="translate(-40,52.362183)"
       id="path3765"
       style="fill:#000000;fill-opacity:1;stroke-width:24.89999962;stroke-miterlimit:4;stroke-dasharray:none" />
    <path
       d="m 465.71429,308.57144 a 120,120 0 1 1 -240,0 120,120 0 1 1 240,0 z"
       transform="translate(354.2857,52.362167)"
       id="path3765-1"
       style="fill:#000000;fill-opacity:1;stroke-width:24.89999962;stroke-miterlimit:4;stroke-dasharray:none" />
  </g>
</svg>
