<?xml version="1.0" encoding="utf-8"?>
<!-- Generator: Adobe Illustrator 15.1.0, SVG Export Plug-In . SVG Version: 6.00 Build 0)  -->
<!DOCTYPE svg PUBLIC "-//W3C//DTD SVG 1.1 Basic//EN" "http://www.w3.org/Graphics/SVG/1.1/DTD/svg11-basic.dtd">
<svg version="1.1" baseProfile="basic" xmlns="http://www.w3.org/2000/svg" xmlns:xlink="http://www.w3.org/1999/xlink" x="0px"
	 y="0px" width="1000px" height="1000px" viewBox="0 0 1000 1000" xml:space="preserve">
<g id="Layer_3">
	<ellipse fill="#CDCFD0" cx="500.057" cy="498.518" rx="485.331" ry="484.989"/>
</g>
<g id="Layer_2">
	<path fill="#FFFFFF" d="M503.533-2C356.318-2,224.072,62.519,133.145,165.002C93.85,236.596,71.477,318.92,71.477,406.509
		c0,276.143,222.306,500,496.533,500c147.215,0,279.461-64.519,370.389-167.002c39.295-71.594,61.668-153.918,61.668-241.508
		C1000.066,221.857,777.762-2,503.533-2z"/>
</g>
<g id="svg2" xmlns:inkscape="http://www.inkscape.org/namespaces/inkscape" xmlns:cc="http://creativecommons.org/ns#" xmlns:dc="http://purl.org/dc/elements/1.1/" xmlns:rdf="http://www.w3.org/1999/02/22-rdf-syntax-ns#" sodipodi:docname="New document 1" inkscape:version="0.48.2 r9819" xmlns:svg="http://www.w3.org/2000/svg" xmlns:sodipodi="http://sodipodi.sourceforge.net/DTD/sodipodi-0.dtd">
	
		<sodipodi:namedview  inkscape:pageopacity="0.0" borderopacity="1.0" objecttolerance="10000" inkscape:cy="748.57143" inkscape:window-height="1021" showgrid="false" inkscape:cx="-143.57143" bordercolor="#666666" pagecolor="#ffffff" inkscape:pageshadow="2" id="base" guidetolerance="10000" inkscape:zoom="0.35" inkscape:window-x="-9" inkscape:window-y="-9" inkscape:document-units="px" inkscape:window-maximized="1" inkscape:current-layer="layer2" inkscape:window-width="1680">
		</sodipodi:namedview>
	
		<path id="path3757" sodipodi:cx="418.57144" sodipodi:ry="267.14285" sodipodi:type="arc" sodipodi:rx="267.14285" sodipodi:cy="519.50507" fill="none" stroke="#000000" stroke-width="13.674" d="
		M987.16,500.286c0.029,268.798-217.633,486.728-486.163,486.757c-268.53,0.03-486.242-217.85-486.271-486.648
		c0-0.036,0-0.072,0-0.108C14.695,231.487,232.358,13.558,500.888,13.528c268.53-0.03,486.242,217.85,486.272,486.648
		C987.16,500.213,987.16,500.249,987.16,500.286z"/>
	<path id="path3765" sodipodi:cx="345.71429" sodipodi:ry="120" sodipodi:type="arc" sodipodi:rx="120" sodipodi:cy="308.57144" d="
		M425.714,308.571c0,66.274-53.726,120-120,120c-66.274,0-120-53.726-120-120c0-66.274,53.726-120,120-120
		C371.988,188.571,425.714,242.297,425.714,308.571z"/>
	
		<path id="path3765-1" sodipodi:cx="345.71429" sodipodi:ry="120" sodipodi:type="arc" sodipodi:rx="120" sodipodi:cy="308.57144" d="
		M814,308.571c0,66.274-53.726,120-120,120s-120-53.726-120-120c0-66.274,53.726-120,120-120S814,242.297,814,308.571z"/>
</g>
</svg>
