<?xml version="1.0" encoding="UTF-8" standalone="no"?>
<!-- Created with Inkscape (http://www.inkscape.org/) -->
<svg id="svg2" xmlns:rdf="http://www.w3.org/1999/02/22-rdf-syntax-ns#" xmlns="http://www.w3.org/2000/svg" height="900" width="1440" version="1.0" xmlns:cc="http://creativecommons.org/ns#" xmlns:xlink="http://www.w3.org/1999/xlink" xmlns:dc="http://purl.org/dc/elements/1.1/">
 <defs id="defs4">
  <radialGradient id="radialGradient3161" gradientUnits="userSpaceOnUse" cy="452.86" cx="721.43" gradientTransform="matrix(1,0,0,0.6289425,0,168.03604)" r="731.5">
   <stop id="stop3157" stop-color="#3c6eb4" offset="0"/>
   <stop id="stop3159" stop-color="#294172" offset="1"/>
  </radialGradient>
 </defs>
 <metadata id="metadata7">
  <rdf:RDF>
   <cc:Work rdf:about="">
    <dc:format>image/svg+xml</dc:format>
    <dc:type rdf:resource="http://purl.org/dc/dcmitype/StillImage"/>
    <dc:title/>
   </cc:Work>
  </rdf:RDF>
 </metadata>
 <g id="layer1">
  <rect id="rect2383" stroke-linejoin="round" style="enable-background:accumulate;marker-end:none;marker-start:none;marker-mid:none;" stroke-dasharray="none" fill-rule="nonzero" rx="0" stroke-dashoffset="0" height="917.14" width="1460" stroke="#000" stroke-linecap="round" stroke-miterlimit="4" y="-5.7143" x="-8.5714" stroke-width="3" fill="url(#radialGradient3161)"/>
  <rect id="rect3163" style="enable-background:accumulate;marker-end:none;marker-start:none;marker-mid:none;" fill-rule="nonzero" ry="28.571" height="95.714" width="95.714" y="454.68" x="781.71" fill="#294172"/>
  <rect id="rect3895" style="enable-background:accumulate;marker-end:none;marker-start:none;marker-mid:none;" fill-rule="nonzero" ry="28.571" height="95.714" width="95.714" y="563.78" x="781.71" fill="#294172"/>
  <rect id="rect3897" style="enable-background:accumulate;marker-end:none;marker-start:none;marker-mid:none;" fill-rule="nonzero" ry="28.571" height="95.714" width="95.714" y="454.68" x="674.63" fill="#294172"/>
  <rect id="rect3899" style="enable-background:accumulate;marker-end:none;marker-start:none;marker-mid:none;" fill-rule="nonzero" ry="28.571" height="95.714" width="95.714" y="563.78" x="674.63" fill="#294172"/>
  <rect id="rect3901" style="enable-background:accumulate;marker-end:none;marker-start:none;marker-mid:none;" fill-rule="nonzero" ry="28.571" height="95.714" width="95.714" y="454.68" x="565.54" fill="#294172"/>
  <rect id="rect3903" style="enable-background:accumulate;marker-end:none;marker-start:none;marker-mid:none;" fill-rule="nonzero" ry="28.571" height="95.714" width="95.714" y="563.78" x="565.54" fill="#294172"/>
  <path id="path4178" fill="#294172" d="M552.53,502.86c0-25.86-20.96-46.82-46.82-46.82-25.84,0-46.79,20.95-46.81,46.79v-0.01,36.23c0.01,5.87,4.77,10.62,10.64,10.62h0.05,0.01,36.13c25.85-0.01,46.8-20.96,46.8-46.81z"/>
  <rect id="rect3907" style="enable-background:accumulate;marker-end:none;marker-start:none;marker-mid:none;" fill-rule="nonzero" ry="28.571" height="95.714" width="95.714" y="563.78" x="458.46" fill="#294172"/>
  <rect id="rect3909" style="enable-background:accumulate;marker-end:none;marker-start:none;marker-mid:none;" fill-rule="nonzero" ry="28.571" height="95.714" width="95.714" y="668.84" x="781.71" fill="#294172"/>
  <rect id="rect3911" style="enable-background:accumulate;marker-end:none;marker-start:none;marker-mid:none;" fill-rule="nonzero" ry="28.571" height="95.714" width="95.714" y="777.93" x="781.71" fill="#294172"/>
  <path id="path4176" opacity="0.35772358" fill="#3c6eb4" d="M768.24,715.72c0-25.86-20.96-46.82-46.81-46.82s-46.8,20.94-46.82,46.78v36.23c0.02,5.87,4.78,10.62,10.65,10.62h0.05,36.14c25.85-0.01,46.79-20.97,46.79-46.81z"/>
  <rect id="rect3915" style="enable-background:accumulate;marker-end:none;marker-start:none;marker-mid:none;" fill-rule="nonzero" ry="28.571" height="95.714" width="95.714" y="777.93" x="674.63" fill="#294172"/>
  <rect id="rect3917" style="enable-background:accumulate;marker-end:none;marker-start:none;marker-mid:none;" fill-rule="nonzero" ry="28.571" height="95.714" width="95.714" y="668.84" x="565.54" fill="#294172"/>
  <rect id="rect3919" style="enable-background:accumulate;marker-end:none;marker-start:none;marker-mid:none;" fill-rule="nonzero" ry="28.571" height="95.714" width="95.714" y="777.93" x="565.54" fill="#294172"/>
  <rect id="rect3921" style="enable-background:accumulate;marker-end:none;marker-start:none;marker-mid:none;" fill-rule="nonzero" ry="28.571" height="95.714" width="95.714" y="668.84" x="458.46" fill="#294172"/>
  <rect id="rect3923" style="enable-background:accumulate;marker-end:none;marker-start:none;marker-mid:none;" fill-rule="nonzero" ry="28.571" height="95.714" width="95.714" y="777.93" x="458.46" fill="#294172"/>
  <rect id="rect3925" style="enable-background:accumulate;marker-end:none;marker-start:none;marker-mid:none;" fill-rule="nonzero" ry="28.571" height="95.714" width="95.714" y="24.36" x="781.71" fill="#294172"/>
  <path id="path4186" fill="#294172" d="M878.24,181.43c0-25.86-20.96-46.82-46.81-46.82s-46.8,20.95-46.82,46.79v36.22,0.01c0.02,5.86,4.78,10.61,10.65,10.61h0.05,36.14c25.85-0.01,46.79-20.96,46.79-46.81z"/>
  <rect id="rect3929" style="enable-background:accumulate;marker-end:none;marker-start:none;marker-mid:none;" fill-rule="nonzero" ry="28.571" height="95.714" width="95.714" y="24.36" x="674.63" fill="#294172"/>
  <rect id="rect3931" opacity="0.3252" style="enable-background:accumulate;marker-end:none;marker-start:none;marker-mid:none;" fill-rule="nonzero" ry="28.571" height="95.714" width="95.714" y="133.46" x="674.63" fill="#3c6eb4"/>
  <rect id="rect3933" style="enable-background:accumulate;marker-end:none;marker-start:none;marker-mid:none;" fill-rule="nonzero" ry="28.571" height="95.714" width="95.714" y="24.36" x="565.54" fill="#294172"/>
  <rect id="rect3935" style="enable-background:accumulate;marker-end:none;marker-start:none;marker-mid:none;" fill-rule="nonzero" ry="28.571" height="95.714" width="95.714" y="133.46" x="565.54" fill="#294172"/>
  <rect id="rect3937" style="enable-background:accumulate;marker-end:none;marker-start:none;marker-mid:none;" fill-rule="nonzero" ry="28.571" height="95.714" width="95.714" y="24.36" x="458.46" fill="#294172"/>
  <rect id="rect3939" style="enable-background:accumulate;marker-end:none;marker-start:none;marker-mid:none;" fill-rule="nonzero" ry="28.571" height="95.714" width="95.714" y="133.46" x="458.46" fill="#294172"/>
  <rect id="rect3941" style="enable-background:accumulate;marker-end:none;marker-start:none;marker-mid:none;" fill-rule="nonzero" ry="28.571" height="95.714" width="95.714" y="238.51" x="781.71" fill="#294172"/>
  <rect id="rect3943" style="enable-background:accumulate;marker-end:none;marker-start:none;marker-mid:none;" fill-rule="nonzero" ry="28.571" height="95.714" width="95.714" y="347.61" x="781.71" fill="#294172"/>
  <rect id="rect3945" style="enable-background:accumulate;marker-end:none;marker-start:none;marker-mid:none;" fill-rule="nonzero" ry="28.571" height="95.714" width="95.714" y="238.51" x="674.63" fill="#294172"/>
  <rect id="rect3947" style="enable-background:accumulate;marker-end:none;marker-start:none;marker-mid:none;" fill-rule="nonzero" ry="28.571" height="95.714" width="95.714" y="347.61" x="674.63" fill="#294172"/>
  <rect id="rect3949" style="enable-background:accumulate;marker-end:none;marker-start:none;marker-mid:none;" fill-rule="nonzero" ry="28.571" height="95.714" width="95.714" y="238.51" x="565.54" fill="#294172"/>
  <rect id="rect3951" style="enable-background:accumulate;marker-end:none;marker-start:none;marker-mid:none;" fill-rule="nonzero" ry="28.571" height="95.714" width="95.714" y="347.61" x="565.54" fill="#294172"/>
  <rect id="rect3953" style="enable-background:accumulate;marker-end:none;marker-start:none;marker-mid:none;" fill-rule="nonzero" ry="28.571" height="95.714" width="95.714" y="238.51" x="458.46" fill="#294172"/>
  <rect id="rect3955" style="enable-background:accumulate;marker-end:none;marker-start:none;marker-mid:none;" fill-rule="nonzero" ry="28.571" height="95.714" width="95.714" y="347.61" x="458.46" fill="#294172"/>
  <rect id="rect3957" style="enable-background:accumulate;marker-end:none;marker-start:none;marker-mid:none;" fill-rule="nonzero" ry="28.571" height="95.714" width="95.714" y="454.68" x="345.32" fill="#294172"/>
  <rect id="rect3959" style="enable-background:accumulate;marker-end:none;marker-start:none;marker-mid:none;" fill-rule="nonzero" ry="28.571" height="95.714" width="95.714" y="563.78" x="345.32" fill="#294172"/>
  <rect id="rect3961" style="enable-background:accumulate;marker-end:none;marker-start:none;marker-mid:none;" fill-rule="nonzero" ry="28.571" height="95.714" width="95.714" y="454.68" x="238.25" fill="#294172"/>
  <rect id="rect3963" style="enable-background:accumulate;marker-end:none;marker-start:none;marker-mid:none;" fill-rule="nonzero" ry="28.571" height="95.714" width="95.714" y="563.78" x="238.25" fill="#294172"/>
  <rect id="rect3965" style="enable-background:accumulate;marker-end:none;marker-start:none;marker-mid:none;" fill-rule="nonzero" ry="28.571" height="95.714" width="95.714" y="454.68" x="129.15" fill="#294172"/>
  <path id="path4182" opacity="0.35772358" fill="#3c6eb4" d="M223.96,612.86c0-25.86-20.96-46.82-46.82-46.82-25.84,0-46.79,20.95-46.81,46.79v-0.01,36.23c0.01,5.87,4.77,10.62,10.64,10.62h0.05,36.14c25.85-0.01,46.8-20.96,46.8-46.81z"/>
  <rect id="rect3969" style="enable-background:accumulate;marker-end:none;marker-start:none;marker-mid:none;" fill-rule="nonzero" ry="28.571" height="95.714" width="95.714" y="454.68" x="22.074" fill="#294172"/>
  <rect id="rect3971" style="enable-background:accumulate;marker-end:none;marker-start:none;marker-mid:none;" fill-rule="nonzero" ry="28.571" height="95.714" width="95.714" y="563.78" x="22.074" fill="#294172"/>
  <rect id="rect3973" opacity="0.3252" style="enable-background:accumulate;marker-end:none;marker-start:none;marker-mid:none;" fill-rule="nonzero" ry="28.571" height="95.714" width="95.714" y="668.84" x="345.32" fill="#3c6eb4"/>
  <rect id="rect3975" style="enable-background:accumulate;marker-end:none;marker-start:none;marker-mid:none;" fill-rule="nonzero" ry="28.571" height="95.714" width="95.714" y="777.93" x="345.32" fill="#294172"/>
  <rect id="rect3977" style="enable-background:accumulate;marker-end:none;marker-start:none;marker-mid:none;" fill-rule="nonzero" ry="28.571" height="95.714" width="95.714" y="668.84" x="238.25" fill="#294172"/>
  <rect id="rect3979" style="enable-background:accumulate;marker-end:none;marker-start:none;marker-mid:none;" fill-rule="nonzero" ry="28.571" height="95.714" width="95.714" y="777.93" x="238.25" fill="#294172"/>
  <rect id="rect3981" style="enable-background:accumulate;marker-end:none;marker-start:none;marker-mid:none;" fill-rule="nonzero" ry="28.571" height="95.714" width="95.714" y="668.84" x="129.15" fill="#294172"/>
  <rect id="rect3983" style="enable-background:accumulate;marker-end:none;marker-start:none;marker-mid:none;" fill-rule="nonzero" ry="28.571" height="95.714" width="95.714" y="777.93" x="129.15" fill="#294172"/>
  <rect id="rect3985" style="enable-background:accumulate;marker-end:none;marker-start:none;marker-mid:none;" fill-rule="nonzero" ry="28.571" height="95.714" width="95.714" y="668.84" x="22.074" fill="#294172"/>
  <rect id="rect3987" opacity="0.19106" style="enable-background:accumulate;marker-end:none;marker-start:none;marker-mid:none;" fill-rule="nonzero" ry="28.571" height="95.714" width="95.714" y="777.93" x="22.074" fill="#3c6eb4"/>
  <rect id="rect3989" opacity="0.35772" style="enable-background:accumulate;marker-end:none;marker-start:none;marker-mid:none;" fill-rule="nonzero" ry="28.571" height="95.714" width="95.714" y="24.36" x="345.32" fill="#3c6eb4"/>
  <path id="path4180" fill="#294172" d="M441.1,181.43c0-25.86-20.96-46.82-46.81-46.82s-46.8,20.95-46.82,46.79v36.22,0.01c0.02,5.86,4.77,10.61,10.64,10.61h0.05,0.01,36.13c25.85-0.01,46.8-20.96,46.8-46.81z"/>
  <rect id="rect3993" style="enable-background:accumulate;marker-end:none;marker-start:none;marker-mid:none;" fill-rule="nonzero" ry="28.571" height="95.714" width="95.714" y="24.36" x="238.25" fill="#294172"/>
  <rect id="rect3995" style="enable-background:accumulate;marker-end:none;marker-start:none;marker-mid:none;" fill-rule="nonzero" ry="28.571" height="95.714" width="95.714" y="133.46" x="238.25" fill="#294172"/>
  <rect id="rect3997" style="enable-background:accumulate;marker-end:none;marker-start:none;marker-mid:none;" fill-rule="nonzero" ry="28.571" height="95.714" width="95.714" y="24.36" x="129.15" fill="#294172"/>
  <rect id="rect3999" style="enable-background:accumulate;marker-end:none;marker-start:none;marker-mid:none;" fill-rule="nonzero" ry="28.571" height="95.714" width="95.714" y="133.46" x="129.15" fill="#294172"/>
  <rect id="rect4001" style="enable-background:accumulate;marker-end:none;marker-start:none;marker-mid:none;" fill-rule="nonzero" ry="28.571" height="95.714" width="95.714" y="24.36" x="22.074" fill="#294172"/>
  <rect id="rect4003" opacity="0.19106" style="enable-background:accumulate;marker-end:none;marker-start:none;marker-mid:none;" fill-rule="nonzero" ry="28.571" height="95.714" width="95.714" y="133.46" x="22.074" fill="#3c6eb4"/>
  <rect id="rect4005" style="enable-background:accumulate;marker-end:none;marker-start:none;marker-mid:none;" fill-rule="nonzero" ry="28.571" height="95.714" width="95.714" y="238.51" x="345.32" fill="#294172"/>
  <rect id="rect4007" opacity="0.35772" style="enable-background:accumulate;marker-end:none;marker-start:none;marker-mid:none;" fill-rule="nonzero" ry="28.571" height="95.714" width="95.714" y="347.61" x="345.32" fill="#3c6eb4"/>
  <rect id="rect4009" style="enable-background:accumulate;marker-end:none;marker-start:none;marker-mid:none;" fill-rule="nonzero" ry="28.571" height="95.714" width="95.714" y="238.51" x="238.25" fill="#294172"/>
  <rect id="rect4011" style="enable-background:accumulate;marker-end:none;marker-start:none;marker-mid:none;" fill-rule="nonzero" ry="28.571" height="95.714" width="95.714" y="347.61" x="238.25" fill="#294172"/>
  <rect id="rect4013" style="enable-background:accumulate;marker-end:none;marker-start:none;marker-mid:none;" fill-rule="nonzero" ry="28.571" height="95.714" width="95.714" y="238.51" x="129.15" fill="#294172"/>
  <rect id="rect4015" style="enable-background:accumulate;marker-end:none;marker-start:none;marker-mid:none;" fill-rule="nonzero" ry="28.571" height="95.714" width="95.714" y="347.61" x="129.15" fill="#294172"/>
  <rect id="rect4017" style="enable-background:accumulate;marker-end:none;marker-start:none;marker-mid:none;" fill-rule="nonzero" ry="28.571" height="95.714" width="95.714" y="238.51" x="22.074" fill="#294172"/>
  <path id="path4184" fill="#294172" d="M116.82,397.15c0-25.86-20.964-46.82-46.82-46.82-25.844,0-46.796,20.94-46.814,46.78h-0.002v36.23h0.002c0.014,5.87,4.772,10.62,10.643,10.62h0.05,0.003,36.136c25.848-0.01,46.802-20.97,46.802-46.81z"/>
  <rect id="rect4021" style="enable-background:accumulate;marker-end:none;marker-start:none;marker-mid:none;" fill-rule="nonzero" ry="28.571" height="95.714" width="95.714" y="454.68" x="1102.9" fill="#294172"/>
  <rect id="rect4023" style="enable-background:accumulate;marker-end:none;marker-start:none;marker-mid:none;" fill-rule="nonzero" ry="28.571" height="95.714" width="95.714" y="563.78" x="1102.9" fill="#294172"/>
  <rect id="rect4025" opacity="0.35772" style="enable-background:accumulate;marker-end:none;marker-start:none;marker-mid:none;" fill-rule="nonzero" ry="28.571" height="95.714" width="95.714" y="454.68" x="995.86" fill="#3c6eb4"/>
  <path id="path4174" fill="#294172" d="M1091.1,611.43c0-25.86-21-46.82-46.8-46.82-25.9,0-46.81,20.95-46.83,46.79v36.22,0.01c0.02,5.86,4.73,10.61,10.63,10.61h0.1,36.1c25.9-0.01,46.8-20.96,46.8-46.81z"/>
  <rect id="rect4029" style="enable-background:accumulate;marker-end:none;marker-start:none;marker-mid:none;" fill-rule="nonzero" ry="28.571" height="95.714" width="95.714" y="454.68" x="886.76" fill="#294172"/>
  <rect id="rect4031" style="enable-background:accumulate;marker-end:none;marker-start:none;marker-mid:none;" fill-rule="nonzero" ry="28.571" height="95.714" width="95.714" y="563.78" x="886.76" fill="#294172"/>
  <rect id="rect4033" style="enable-background:accumulate;marker-end:none;marker-start:none;marker-mid:none;" fill-rule="nonzero" ry="28.571" height="95.714" width="95.714" y="668.84" x="1102.9" fill="#294172"/>
  <rect id="rect4035" style="enable-background:accumulate;marker-end:none;marker-start:none;marker-mid:none;" fill-rule="nonzero" ry="28.571" height="95.714" width="95.714" y="777.93" x="1102.9" fill="#294172"/>
  <rect id="rect4037" opacity="0.35772" style="enable-background:accumulate;marker-end:none;marker-start:none;marker-mid:none;" fill-rule="nonzero" ry="28.571" height="95.714" width="95.714" y="668.84" x="995.86" fill="#3c6eb4"/>
  <rect id="rect4039" style="enable-background:accumulate;marker-end:none;marker-start:none;marker-mid:none;" fill-rule="nonzero" ry="28.571" height="95.714" width="95.714" y="777.93" x="995.86" fill="#294172"/>
  <rect id="rect4041" style="enable-background:accumulate;marker-end:none;marker-start:none;marker-mid:none;" fill-rule="nonzero" ry="28.571" height="95.714" width="95.714" y="668.84" x="886.76" fill="#294172"/>
  <rect id="rect4043" style="enable-background:accumulate;marker-end:none;marker-start:none;marker-mid:none;" fill-rule="nonzero" ry="28.571" height="95.714" width="95.714" y="777.93" x="886.76" fill="#294172"/>
  <rect id="rect4045" style="enable-background:accumulate;marker-end:none;marker-start:none;marker-mid:none;" fill-rule="nonzero" ry="28.571" height="95.714" width="95.714" y="24.36" x="1102.9" fill="#294172"/>
  <path id="path4309" fill="#294172" d="M1197.4,180.77c0-25.85-21-46.81-46.8-46.81-25.9,0-46.8,20.94-46.9,46.78v36.23c0.1,5.87,4.8,10.62,10.7,10.62v-0.01,0.01h36.2c25.8-0.01,46.8-20.97,46.8-46.82z"/>
  <rect id="rect4049" style="enable-background:accumulate;marker-end:none;marker-start:none;marker-mid:none;" fill-rule="nonzero" ry="28.571" height="95.714" width="95.714" y="24.36" x="995.86" fill="#294172"/>
  <rect id="rect4051" style="enable-background:accumulate;marker-end:none;marker-start:none;marker-mid:none;" fill-rule="nonzero" ry="28.571" height="95.714" width="95.714" y="133.46" x="995.86" fill="#294172"/>
  <rect id="rect4053" style="enable-background:accumulate;marker-end:none;marker-start:none;marker-mid:none;" fill-rule="nonzero" ry="28.571" height="95.714" width="95.714" y="24.36" x="886.76" fill="#294172"/>
  <rect id="rect4055" opacity="0.35772" style="enable-background:accumulate;marker-end:none;marker-start:none;marker-mid:none;" fill-rule="nonzero" ry="28.571" height="95.714" width="95.714" y="133.46" x="886.76" fill="#3c6eb4"/>
  <rect id="rect4057" opacity="0.3252" style="enable-background:accumulate;marker-end:none;marker-start:none;marker-mid:none;" fill-rule="nonzero" ry="28.571" height="95.714" width="95.714" y="238.51" x="1102.9" fill="#3c6eb4"/>
  <path id="path4172" fill="#294172" d="M1198.2,397.15c0-25.86-20.9-46.82-46.8-46.82-25.8,0-46.8,20.94-46.8,46.78v36.23c0,5.87,4.8,10.62,10.7,10.62h36.1c25.9-0.01,46.8-20.97,46.8-46.81z"/>
  <rect id="rect4061" style="enable-background:accumulate;marker-end:none;marker-start:none;marker-mid:none;" fill-rule="nonzero" ry="28.571" height="95.714" width="95.714" y="238.51" x="995.86" fill="#294172"/>
  <rect id="rect4063" style="enable-background:accumulate;marker-end:none;marker-start:none;marker-mid:none;" fill-rule="nonzero" ry="28.571" height="95.714" width="95.714" y="347.61" x="995.86" fill="#294172"/>
  <rect id="rect4065" style="enable-background:accumulate;marker-end:none;marker-start:none;marker-mid:none;" fill-rule="nonzero" ry="28.571" height="95.714" width="95.714" y="238.51" x="886.76" fill="#294172"/>
  <rect id="rect4067" style="enable-background:accumulate;marker-end:none;marker-start:none;marker-mid:none;" fill-rule="nonzero" ry="28.571" height="95.714" width="95.714" y="347.61" x="886.76" fill="#294172"/>
  <rect id="rect4073" style="enable-background:accumulate;marker-end:none;marker-start:none;marker-mid:none;" fill-rule="nonzero" ry="28.571" height="95.714" width="95.714" y="454.68" x="1315.1" fill="#294172"/>
  <rect id="rect4075" opacity="0.19106" style="enable-background:accumulate;marker-end:none;marker-start:none;marker-mid:none;" fill-rule="nonzero" ry="28.571" height="95.714" width="95.714" y="563.78" x="1315.1" fill="#3c6eb4"/>
  <rect id="rect4077" style="enable-background:accumulate;marker-end:none;marker-start:none;marker-mid:none;" fill-rule="nonzero" ry="28.571" height="95.714" width="95.714" y="454.68" x="1206" fill="#294172"/>
  <rect id="rect4079" style="enable-background:accumulate;marker-end:none;marker-start:none;marker-mid:none;" fill-rule="nonzero" ry="28.571" height="95.714" width="95.714" y="563.78" x="1206" fill="#294172"/>
  <rect id="rect4085" style="enable-background:accumulate;marker-end:none;marker-start:none;marker-mid:none;" fill-rule="nonzero" ry="28.571" height="95.714" width="95.714" y="668.84" x="1315.1" fill="#294172"/>
  <rect id="rect4087" opacity="0.089431" style="enable-background:accumulate;marker-end:none;marker-start:none;marker-mid:none;" fill-rule="nonzero" ry="28.571" height="95.714" width="95.714" y="777.93" x="1315.1" fill="#3c6eb4"/>
  <rect id="rect4089" style="enable-background:accumulate;marker-end:none;marker-start:none;marker-mid:none;" fill-rule="nonzero" ry="28.571" height="95.714" width="95.714" y="668.84" x="1206" fill="#294172"/>
  <rect id="rect4091" style="enable-background:accumulate;marker-end:none;marker-start:none;marker-mid:none;" fill-rule="nonzero" ry="28.571" height="95.714" width="95.714" y="777.93" x="1206" fill="#294172"/>
  <rect id="rect4097" style="enable-background:accumulate;marker-end:none;marker-start:none;marker-mid:none;" fill-rule="nonzero" ry="28.571" height="95.714" width="95.714" y="24.36" x="1315.1" fill="#294172"/>
  <rect id="rect4099" style="enable-background:accumulate;marker-end:none;marker-start:none;marker-mid:none;" fill-rule="nonzero" ry="28.571" height="95.714" width="95.714" y="133.46" x="1315.1" fill="#294172"/>
  <rect id="rect4101" opacity="0.19106" style="enable-background:accumulate;marker-end:none;marker-start:none;marker-mid:none;" fill-rule="nonzero" ry="28.571" height="95.714" width="95.714" y="24.36" x="1206" fill="#3c6eb4"/>
  <rect id="rect4103" style="enable-background:accumulate;marker-end:none;marker-start:none;marker-mid:none;" fill-rule="nonzero" ry="28.571" height="95.714" width="95.714" y="133.46" x="1206" fill="#294172"/>
  <rect id="rect4109" style="enable-background:accumulate;marker-end:none;marker-start:none;marker-mid:none;" fill-rule="nonzero" ry="28.571" height="95.714" width="95.714" y="238.51" x="1315.1" fill="#294172"/>
  <rect id="rect4111" style="enable-background:accumulate;marker-end:none;marker-start:none;marker-mid:none;" fill-rule="nonzero" ry="28.571" height="95.714" width="95.714" y="347.61" x="1315.1" fill="#294172"/>
  <rect id="rect4113" style="enable-background:accumulate;marker-end:none;marker-start:none;marker-mid:none;" fill-rule="nonzero" ry="28.571" height="95.714" width="95.714" y="238.51" x="1206" fill="#294172"/>
  <rect id="rect4115" style="enable-background:accumulate;marker-end:none;marker-start:none;marker-mid:none;" fill-rule="nonzero" ry="28.571" height="95.714" width="95.714" y="347.61" x="1206" fill="#294172"/>
 </g>
</svg>
